<svg width="50" height="50" viewBox="0 0 50 50" fill="none" xmlns="http://www.w3.org/2000/svg">
<rect width="50" height="50" rx="25" fill="#FBE44D"/>
<path d="M25 13.75C32.2487 13.75 38.125 18.33 38.125 23.9813C38.125 29.6313 32.2487 34.2113 25 34.2113C24.2782 34.2116 23.5572 34.1657 22.8412 34.0738L17.3312 37.6775C16.705 38.0088 16.4838 37.9725 16.7413 37.1613L17.8562 32.5638C14.2562 30.7388 11.875 27.5763 11.875 23.9813C11.875 18.3313 17.7513 13.75 25 13.75ZM32.3837 23.825L34.2213 22.045C34.3273 21.9349 34.3864 21.7879 34.3862 21.6351C34.3861 21.4822 34.3266 21.3354 34.2203 21.2255C34.114 21.1157 33.9692 21.0513 33.8164 21.0461C33.6636 21.0409 33.5148 21.0952 33.4013 21.1975L30.9912 23.53V21.6025C30.9912 21.446 30.9291 21.296 30.8184 21.1853C30.7078 21.0747 30.5577 21.0125 30.4012 21.0125C30.2448 21.0125 30.0947 21.0747 29.9841 21.1853C29.8734 21.296 29.8113 21.446 29.8113 21.6025V24.7987C29.7891 24.8899 29.7891 24.9851 29.8113 25.0763V26.875C29.8113 27.0315 29.8734 27.1815 29.9841 27.2922C30.0947 27.4028 30.2448 27.465 30.4012 27.465C30.5577 27.465 30.7078 27.4028 30.8184 27.2922C30.9291 27.1815 30.9912 27.0315 30.9912 26.875V25.1713L31.525 24.655L33.31 27.1962C33.3546 27.2597 33.4112 27.3137 33.4766 27.3553C33.5421 27.3969 33.6151 27.4251 33.6915 27.4385C33.7679 27.4518 33.8461 27.45 33.9218 27.4331C33.9975 27.4162 34.0691 27.3846 34.1325 27.34C34.1959 27.2954 34.25 27.2388 34.2916 27.1734C34.3331 27.1079 34.3614 27.0349 34.3747 26.9585C34.3881 26.8821 34.3862 26.8039 34.3693 26.7282C34.3525 26.6525 34.3208 26.5809 34.2762 26.5175L32.3837 23.8237V23.825ZM28.6863 26.23H26.8612V21.6213C26.8543 21.4696 26.7891 21.3265 26.6794 21.2217C26.5696 21.1169 26.4237 21.0584 26.2719 21.0584C26.1201 21.0584 25.9742 21.1169 25.8644 21.2217C25.7546 21.3265 25.6895 21.4696 25.6825 21.6213V26.82C25.6825 27.145 25.945 27.41 26.2712 27.41H28.6863C28.8427 27.41 28.9928 27.3478 29.1034 27.2372C29.2141 27.1265 29.2762 26.9765 29.2762 26.82C29.2762 26.6635 29.2141 26.5135 29.1034 26.4028C28.9928 26.2922 28.8427 26.23 28.6863 26.23ZM21.365 24.865L22.235 22.7313L23.0325 24.865H21.365ZM24.5187 25.475L24.5212 25.455C24.521 25.3064 24.4642 25.1634 24.3625 25.055L23.055 21.555C23.0002 21.3882 22.8958 21.2421 22.7557 21.1362C22.6157 21.0304 22.4467 20.9698 22.2713 20.9625C22.0946 20.9617 21.9218 21.0148 21.776 21.1146C21.6302 21.2144 21.5182 21.3562 21.455 21.5212L19.3787 26.615C19.3494 26.6867 19.3346 26.7635 19.3349 26.841C19.3353 26.9185 19.351 26.9952 19.381 27.0666C19.411 27.1381 19.4548 27.2029 19.5098 27.2574C19.5649 27.3119 19.6301 27.3551 19.7019 27.3844C19.7736 27.4137 19.8504 27.4286 19.9279 27.4282C20.0054 27.4278 20.082 27.4122 20.1535 27.3822C20.2249 27.3522 20.2898 27.3084 20.3443 27.2533C20.3988 27.1982 20.4419 27.133 20.4712 27.0613L20.8837 26.045H23.4713L23.845 27.045C23.8704 27.1197 23.9106 27.1886 23.9631 27.2476C24.0156 27.3065 24.0794 27.3543 24.1507 27.3882C24.2221 27.422 24.2995 27.4412 24.3784 27.4446C24.4572 27.4479 24.536 27.4355 24.6099 27.4078C24.6839 27.3802 24.7516 27.3381 24.8089 27.2838C24.8663 27.2296 24.9122 27.1644 24.9439 27.0921C24.9756 27.0198 24.9925 26.9418 24.9936 26.8629C24.9946 26.784 24.9798 26.7056 24.95 26.6325L24.5187 25.475ZM20.3663 21.6275C20.3663 21.4712 20.3043 21.3214 20.1939 21.2107C20.0835 21.1001 19.9338 21.0378 19.7775 21.0375H15.7213C15.5648 21.0375 15.4147 21.0997 15.3041 21.2103C15.1934 21.321 15.1312 21.471 15.1312 21.6275C15.1312 21.784 15.1934 21.934 15.3041 22.0447C15.4147 22.1553 15.5648 22.2175 15.7213 22.2175H17.1712V26.8875C17.1712 27.044 17.2334 27.194 17.3441 27.3047C17.4547 27.4153 17.6048 27.4775 17.7613 27.4775C17.9177 27.4775 18.0678 27.4153 18.1784 27.3047C18.2891 27.194 18.3513 27.044 18.3513 26.8875V22.2175H19.7762C19.9327 22.2175 20.0828 22.1553 20.1934 22.0447C20.3041 21.934 20.3663 21.784 20.3663 21.6275Z" fill="black"/>
</svg>
