<svg width="65" height="25" viewBox="0 0 65 25" fill="none" xmlns="http://www.w3.org/2000/svg">
    <path
        d="M16.8218 23.8759C15.2457 24.7124 12.4405 25.034 10.5206 24.9706C1.29754 24.7124 -0.392107 17.2791 0.0684229 11.8087C0.37648 8.52613 2.18126 3.86052 6.52363 2.4442C10.4817 1.09284 16.6304 1.60772 19.0124 4.63205C19.8199 5.72676 20.3955 7.49637 20.089 8.94437C19.6285 11.4871 16.285 10.7472 15.6315 8.94437C15.2861 7.94629 14.863 7.07812 13.7863 6.53156C11.2892 5.24515 8.21483 6.3066 6.75389 8.23779C5.06269 10.3623 4.87132 13.4516 5.44698 15.9293C5.71614 16.9274 6.13933 17.9239 6.75389 18.8903C7.67651 20.2416 10.1347 21.0781 12.0951 20.6599C14.8614 20.08 15.476 18.5687 15.476 16.7658V16.7341C14.8225 16.7341 14.2468 16.7024 14.0166 16.7024C13.4394 16.7024 12.8637 16.6058 12.3643 16.4458C11.9037 16.3175 11.5568 16.1242 11.3265 15.8343C11.0574 15.5776 10.9422 15.2877 10.9422 14.9661C10.9422 14.7094 10.9811 14.4829 11.0185 14.2262C11.0947 14.033 11.2876 13.808 11.5179 13.583C11.6719 13.4864 11.9411 13.3898 12.2476 13.3264C12.5556 13.2614 12.8621 13.1648 13.2464 13.1331C13.5545 13.1014 13.9388 13.1014 14.2842 13.1014H17.7802C18.3574 13.0697 19.2022 13.2298 19.6254 13.5197C19.7794 13.6813 19.9708 13.8413 20.0486 14.0662C20.1248 14.2595 20.2026 14.5162 20.24 14.7744C20.2773 15.0326 20.3162 15.321 20.3162 15.5475V16.8672C20.2773 19.4099 19.9708 22.2093 16.8202 23.8822L16.8218 23.8759Z"
        fill="#35B7AC" />
    <path
        d="M27.0046 0C27.5818 0 28.1186 0 28.618 0.0966391C30.7697 0.579835 30.1941 4.11904 30.1941 5.50209V14.9949C30.1941 15.8314 30.2703 16.7328 29.9249 17.5043C29.2326 18.9524 25.5437 18.8557 24.8529 17.4727C24.6988 17.0861 24.6226 16.4112 24.5837 15.9597C24.5448 15.2199 24.5837 14.4151 24.5837 13.6103V2.83263C24.5837 2.31775 24.6988 1.35295 25.122 0.804798C25.5452 0.256648 26.3511 0 27.0046 0V0ZM29.9249 22.1399C30.233 23.0413 30.1552 24.361 28.8872 24.8109C27.7732 25.1975 25.6214 25.0359 25.122 23.9095C24.8529 23.2979 24.814 22.4298 25.0831 21.8183C25.3912 21.1751 26.1209 20.9818 26.8895 20.9818C27.8494 20.9501 28.8872 20.9501 29.5406 21.4967C29.6946 21.6899 29.8487 21.8832 29.9249 22.1399Z"
        fill="#35B7AC" />
    <path
        d="M51.5571 23.8759C49.981 24.7124 47.1759 25.034 45.2559 24.9706C36.0329 24.714 34.3432 17.2791 34.8038 11.8087C35.1118 8.52613 36.9166 3.86052 41.259 2.4442C45.217 1.09284 51.3657 1.60772 53.7477 4.63205C54.5552 5.72676 55.1309 7.49637 54.8244 8.94437C54.3639 11.4871 51.0204 10.7472 50.3669 8.94437C50.0215 7.94629 49.5983 7.07812 48.5232 6.53156C46.0261 5.24515 42.9517 6.3066 41.4908 8.23779C39.7996 10.3623 39.6082 13.4516 40.1839 15.9293C40.453 16.9274 40.8762 17.9239 41.4908 18.8903C42.4134 20.2416 44.8717 21.0781 46.832 20.6599C49.5983 20.08 50.2129 18.5687 50.2129 16.7658V16.7341C49.5594 16.7341 48.9837 16.7024 48.7535 16.7024C48.1763 16.7024 47.6006 16.6058 47.1012 16.4458C46.6406 16.3175 46.2937 16.1242 46.0634 15.8343C45.7943 15.5776 45.6791 15.2877 45.6791 14.9661C45.6791 14.7094 45.718 14.4829 45.7554 14.2262C45.8316 14.033 46.0245 13.808 46.2548 13.583C46.4088 13.4864 46.678 13.3898 46.9845 13.3264C47.2925 13.2614 47.599 13.1648 47.9833 13.1331C48.2914 13.1014 48.6757 13.1014 49.0211 13.1014H52.5186C53.0943 13.0697 53.9407 13.2298 54.3623 13.5197C54.5163 13.6813 54.7077 13.8413 54.7855 14.0662C54.8617 14.2595 54.9395 14.5162 54.9784 14.7744C55.0173 15.0326 55.0547 15.321 55.0547 15.5475V16.8672C55.0158 19.4099 54.7093 22.2093 51.5571 23.8822V23.8759Z"
        fill="#35B7AC" />
    <path
        d="M61.7404 0C62.3176 0 62.8544 0 63.3538 0.0966391C65.5056 0.579835 64.9299 4.11904 64.9299 5.50209V14.9949C64.9299 15.8314 65.0062 16.7328 64.6608 17.5043C63.9684 18.9524 60.2795 18.8557 59.5887 17.4727C59.4347 17.0861 59.3584 16.4112 59.3195 15.9597C59.2806 15.2199 59.3195 14.4151 59.3195 13.6103V2.83263C59.3195 2.31775 59.4347 1.35295 59.8579 0.804798C60.281 0.256648 61.087 0 61.7404 0V0ZM64.6608 22.1399C64.9688 23.0413 64.891 24.361 63.623 24.8109C62.509 25.1975 60.3573 25.0359 59.8579 23.9095C59.5887 23.2979 59.5498 22.4298 59.819 21.8183C60.127 21.1751 60.8567 20.9818 61.6253 20.9818C62.5853 20.9501 63.623 20.9501 64.2765 21.4967C64.4305 21.6899 64.5845 21.8832 64.6608 22.1399Z"
        fill="#35B7AC" />
</svg>
