<svg width="83" height="83" viewBox="0 0 83 83" fill="none" xmlns="http://www.w3.org/2000/svg">
    <path fill-rule="evenodd" clip-rule="evenodd"
        d="M41.4829 0.472656C18.8349 0.472656 0.474121 18.8334 0.474121 41.4814C0.474121 64.1295 18.8349 82.4902 41.4829 82.4902C64.1309 82.4902 82.4917 64.1295 82.4917 41.4814C82.4917 18.8334 64.1309 0.472656 41.4829 0.472656ZM7.93026 41.4814C7.93026 49.2731 10.5884 56.4459 15.0434 62.1424C18.1721 58.0337 22.2084 54.704 26.8369 52.4133C31.4654 50.1226 36.5609 48.9331 41.7252 48.9376C46.8227 48.9327 51.8541 50.0915 56.4359 52.3256C61.0178 54.5596 65.0293 57.8101 68.1647 61.8292C71.3949 57.5927 73.5698 52.6478 74.5095 47.4038C75.4492 42.1598 75.1266 36.7674 73.5685 31.6728C72.0104 26.5782 69.2616 21.9279 65.5494 18.1066C61.8372 14.2853 57.2685 11.4028 52.2212 9.6978C47.1738 7.99276 41.7931 7.51413 36.524 8.3015C31.255 9.08888 26.2492 11.1196 21.9208 14.2257C17.5925 17.3318 14.066 21.4239 11.6331 26.1635C9.20022 30.9031 7.93094 36.1539 7.93026 41.4814V41.4814ZM41.4829 75.0341C33.7805 75.0456 26.3106 72.3959 20.3373 67.5332C22.7416 64.0912 25.9418 61.2809 29.6656 59.3414C33.3894 57.402 37.5266 56.3907 41.7252 56.3937C45.8714 56.3904 49.9586 57.3763 53.6473 59.2696C57.336 61.1629 60.5198 63.909 62.9342 67.2797C56.9145 72.3003 49.3215 75.0451 41.4829 75.0341V75.0341Z"
        fill="#9C9C9C" />
    <path
        d="M65.5707 63.848C39.761 44.9214 25.4223 60.4067 17.3926 65.5686L25.9958 74.1718C31.1578 78.7602 44.2347 85.5281 55.2468 75.8925C66.259 66.2568 66.7178 63.848 65.5707 63.848Z"
        fill="#9C9C9C" />
    <circle cx="41.001" cy="30.6753" r="13.7652" fill="#9C9C9C" />
</svg>
