<svg width="83" height="83" viewBox="0 0 83 83" fill="none" xmlns="http://www.w3.org/2000/svg">
    <path fill-rule="evenodd" clip-rule="evenodd"
        d="M41.4824 0.472656C18.8344 0.472656 0.473633 18.8334 0.473633 41.4814C0.473633 64.1295 18.8344 82.4902 41.4824 82.4902C64.1304 82.4902 82.4912 64.1295 82.4912 41.4814C82.4912 18.8334 64.1304 0.472656 41.4824 0.472656ZM7.92977 41.4814C7.92977 49.2731 10.5879 56.4459 15.0429 62.1424C18.1716 58.0337 22.2079 54.704 26.8364 52.4133C31.465 50.1226 36.5604 48.9331 41.7247 48.9376C46.8222 48.9327 51.8536 50.0915 56.4354 52.3256C61.0173 54.5596 65.0288 57.8101 68.1642 61.8292C71.3944 57.5927 73.5693 52.6478 74.509 47.4038C75.4487 42.1598 75.1261 36.7674 73.568 31.6728C72.0099 26.5782 69.2611 21.9279 65.5489 18.1066C61.8367 14.2853 57.268 11.4028 52.2207 9.6978C47.1734 7.99276 41.7926 7.51413 36.5236 8.3015C31.2545 9.08888 26.2487 11.1196 21.9204 14.2257C17.592 17.3318 14.0655 21.4239 11.6326 26.1635C9.19973 30.9031 7.93045 36.1539 7.92977 41.4814V41.4814ZM41.4824 75.0341C33.78 75.0456 26.3102 72.3959 20.3368 67.5332C22.7411 64.0912 25.9413 61.2809 29.6651 59.3414C33.3889 57.402 37.5261 56.3907 41.7247 56.3937C45.8709 56.3904 49.9581 57.3763 53.6468 59.2696C57.3355 61.1629 60.5193 63.909 62.9337 67.2797C56.914 72.3003 49.321 75.0451 41.4824 75.0341V75.0341Z"
        fill="#9C9C9C" />
    <path
        d="M65.5697 63.848C39.76 44.9214 25.4213 60.4067 17.3916 65.5686L25.9948 74.1718C31.1568 78.7602 44.2337 85.5281 55.2459 75.8925C66.258 66.2568 66.7168 63.848 65.5697 63.848Z"
        fill="#9C9C9C" />
    <circle cx="41.0005" cy="30.6753" r="13.7652" fill="#9C9C9C" />
</svg>
