<svg width="120" height="120" viewBox="0 0 120 120" fill="none" xmlns="http://www.w3.org/2000/svg">
<circle cx="60" cy="60" r="60" fill="#FFB9A9"/>
<circle cx="60" cy="48" r="20" fill="#FFE7E1"/>
<mask id="mask0_528_8202" style="mask-type:alpha" maskUnits="userSpaceOnUse" x="0" y="0" width="120" height="120">
<circle cx="60" cy="60" r="60" fill="#D9D9D9"/>
</mask>
<g mask="url(#mask0_528_8202)">
<circle cx="60" cy="102" r="38" fill="#FFE7E1"/>
</g>
<circle cx="102" cy="102" r="11.25" fill="white"/>
<path d="M110.625 93.3742C105.881 88.6309 98.1188 88.6309 93.375 93.3742C88.6313 98.1175 88.6313 105.879 93.375 110.623C98.1187 115.366 105.881 115.366 110.625 110.623C115.369 105.879 115.369 98.1175 110.625 93.3742ZM101.014 109.637L101.014 102.984L94.3607 102.984L94.3607 101.013L101.014 101.013V94.3598H102.986V101.013L109.639 101.013L109.639 102.984L102.986 102.984L102.986 109.637H101.014Z" fill="#2B2B2B"/>
</svg>
