<svg width="24" height="24" viewBox="0 0 24 24" fill="none" xmlns="http://www.w3.org/2000/svg">
<path d="M9.2325 7.85043H5.62219C6.51671 6.47576 7.83154 5.42696 9.37071 4.86037C10.9099 4.29377 12.5909 4.23973 14.1633 4.70628C15.7357 5.17284 17.1152 6.13502 18.0962 7.44939C19.0772 8.76376 19.6071 10.3599 19.607 12H20.9902C20.9922 10.1503 20.4235 8.34507 19.3618 6.8304C18.3001 5.31573 16.797 4.16536 15.0576 3.53616C13.3181 2.90696 11.4269 2.82955 9.6418 3.31448C7.85672 3.79942 6.26467 4.82309 5.08271 6.24592V3.70085H3.69945V9.23362H9.2325V7.85043ZM14.7656 16.1496H18.3759C17.4814 17.5242 16.1665 18.573 14.6274 19.1396C13.0882 19.7062 11.4071 19.7603 9.83475 19.2937C8.26237 18.8272 6.88288 17.865 5.90189 16.5506C4.92091 15.2362 4.39098 13.6401 4.39108 12H3.00782C3.00591 13.8497 3.57458 15.6549 4.63628 17.1696C5.69799 18.6843 7.20105 19.8346 8.94051 20.4638C10.68 21.093 12.5712 21.1704 14.3563 20.6855C16.1413 20.2006 17.7334 19.1769 18.9154 17.7541V20.2991H20.2986V14.7664H14.7656V16.1496Z" fill="#2B2B2B"/>
</svg>
