<svg width="143" height="140" viewBox="0 0 143 140" fill="none" xmlns="http://www.w3.org/2000/svg">
<g clip-path="url(#clip0_128_5824)">
<path d="M142.694 39.0998L107.966 45.0703L104.87 4.11162L5.34826 0.0393834L4.00135 0L5.83661 17.3996L0 17.9982L5.78935 85.6667L25.5519 81.1297L25.9379 140.008L114.157 112.44L110.667 130.477L115.622 124.845L141.78 96.7255L142.694 39.0998Z" fill="#2B2B2B"/>
<path d="M105.737 47.9219L103.216 5.80534L9.09766 3.08789L14.2726 76.2149L33.0979 72.8201L34.7362 127.988L123.451 101.452L119.025 117.591L139.425 95.7491L141.426 40.5572L105.737 47.9219Z" fill="white"/>
<path d="M20.4015 64.6834C21.0693 65.2206 21.9079 65.5001 22.7645 65.471L33.1932 63.3443C33.8767 63.2233 34.5467 63.036 35.1939 62.7851C34.9269 63.2442 34.5543 63.6331 34.1069 63.9193C32.9477 64.7086 31.6354 65.2454 30.2552 65.4947L19.8108 67.6292C19.531 67.657 19.2508 67.5813 19.0231 67.4166L18.5584 50.7023C18.5584 50.0958 18.6687 46.63 18.6529 46.0235L17.8652 18.5261C17.8652 18.2976 17.9755 16.8956 17.9598 16.4466C17.9598 15.8322 17.7628 14.7216 18.3457 14.1466L19.3145 13.9497V14.1781C19.3145 14.4853 19.2594 15.1076 19.2673 15.1785L20.0549 42.6838C20.0549 42.991 20.0156 43.9913 19.9683 44.9208C19.921 45.8502 19.9683 47.1341 19.9683 47.3626L20.4015 64.6834ZM21.4097 47.0632C21.4097 46.4567 21.5279 42.991 21.5121 42.3372L20.7245 14.8398C20.7245 14.6114 20.8269 13.2172 20.819 12.7603C20.819 12.1538 20.6142 11.0432 21.2049 10.4604L22.544 10.1925C23.7666 9.89918 25.0139 9.71987 26.2696 9.65693L27.459 9.19221L27.6874 9.37337C28.2073 9.2631 31.0429 8.84563 31.6258 8.71961C32.6661 8.51534 33.7362 8.51534 34.7765 8.71961C35.7532 8.90077 36.7535 9.92474 37.5963 10.5943C37.7108 10.7129 37.7852 10.8644 37.809 11.0275C37.809 11.1771 38.8723 11.8151 38.8723 11.8151C39.2076 13.2281 39.4237 14.6667 39.5182 16.1158C39.5182 16.2655 39.786 17.6911 39.7939 17.8172C39.8018 17.9432 40.0853 20.2826 40.0853 20.4322C40.298 22.4565 40.9124 47.3862 40.9675 49.442C41.1827 52.7703 40.2728 56.0743 38.384 58.8231C38.0204 59.3953 37.5592 59.8992 37.0213 60.3118C35.8634 61.1036 34.5505 61.6406 33.1696 61.8871L22.7488 64.0138C22.4408 64.0593 22.1272 63.9831 21.8745 63.8012L21.4097 47.0632ZM27.4669 16.7223C27.5299 19.0853 28.7035 53.2937 28.7666 55.6488C29.0107 56.4365 29.7511 56.0584 30.2001 55.9639C31.9881 55.6016 33.9021 54.4516 34.0676 52.4273C34.1463 49.7413 34.0676 48.1424 34.0676 45.7163C34.0203 44.141 33.3271 18.9357 33.1302 17.4076C32.6182 15.2966 31.1138 14.761 28.8768 15.2179C28.2782 15.336 27.4669 15.7298 27.4905 16.4939L27.4669 16.7223ZM31.61 17.8644C31.8069 19.4398 32.5001 44.4167 32.5474 46.0156C32.6104 48.292 32.6576 50.1903 32.5474 52.6557C32.4356 52.9889 32.2552 53.295 32.0177 53.5541C31.7803 53.8133 31.4911 54.0197 31.1689 54.1601C31.1689 52.4745 31.1689 51.1827 31.1059 49.3554C31.0587 47.78 30.3655 22.6141 30.1686 21.0545C29.993 20.3092 29.5814 19.6406 28.995 19.1483L28.932 16.7223C30.271 16.5254 31.2556 16.8562 31.5864 18.0141L31.61 17.8644Z" fill="#2B2B2B"/>
<path d="M52.3958 59.1699C52.9352 59.0576 53.4627 58.894 53.9711 58.6815C52.9987 59.692 51.7394 60.3793 50.3636 60.6507L49.2293 60.8791C48.8286 60.9789 48.4115 60.994 48.0046 60.9235C47.5978 60.853 47.2101 60.6983 46.8663 60.4695C45.5002 59.6201 44.4874 58.3052 44.015 56.7675C43.4174 54.1061 43.0354 51.4009 42.8729 48.6782V48.2528C42.8098 46.4727 42.739 38.1234 42.6917 36.3905C42.6208 33.8149 42.8256 30.0892 44.3537 27.2221C43.8011 29.4623 43.5678 31.7693 43.6605 34.0748C43.6605 34.9176 43.755 37.3909 43.7708 39.9272C43.7865 42.4635 43.7708 45.047 43.8338 45.945V46.4175C44.0003 49.2031 44.3715 51.9727 44.9444 54.7038C45.4655 56.4439 46.6171 57.9269 48.1739 58.8627H48.0636C48.5198 59.1725 49.0359 59.3831 49.5787 59.4808C50.1214 59.5785 50.6786 59.5611 51.2142 59.4298L52.3958 59.1699ZM51.23 58.3822C50.8289 58.4823 50.4112 58.4969 50.0041 58.425C49.597 58.3531 49.2095 58.1962 48.867 57.9647C47.4989 57.1175 46.4855 55.8018 46.0156 54.2627C45.4247 51.5956 45.0507 48.8851 44.8972 46.1576V45.7323C44.8184 43.9443 44.7396 35.6029 44.6924 33.87C44.5742 29.4985 45.2989 21.8423 51.742 20.5348C56.0663 19.6526 57.8937 21.8187 58.5947 24.7961C58.7622 25.1967 58.8607 25.6228 58.8861 26.0564L59.4217 45.2518L59.28 49.4579C58.9885 50.1038 59.0043 50.8364 58.7128 51.4823C57.3581 54.7747 55.9796 57.3819 52.3642 58.1144L51.23 58.3822ZM52.4903 53.3648C53.8372 53.0891 54.2074 51.5847 54.1759 50.5371C54.1759 49.899 54.2389 47.0792 54.2231 46.5042C54.1759 44.8737 54.1129 37.0049 54.0656 35.2721L53.8293 26.781C53.8403 26.551 53.7991 26.3214 53.7088 26.1095C53.6186 25.8977 53.4816 25.7089 53.3081 25.5574C53.1347 25.4059 52.9292 25.2956 52.7071 25.2347C52.485 25.1738 52.252 25.1639 52.0256 25.2057H51.868C51.5277 25.3413 51.2029 25.5129 50.8992 25.7177C50.7417 25.7177 50.1982 26.5447 50.0485 26.7416C49.9762 26.9016 49.9284 27.0715 49.9067 27.2457C49.9067 28.1358 49.9067 31.8536 49.9067 32.7594L50.4108 52.1596C50.4681 52.3746 50.5677 52.5759 50.7039 52.7518C50.84 52.9277 51.0099 53.0746 51.2036 53.1839C51.3973 53.2933 51.6109 53.3628 51.8319 53.3884C52.0528 53.4141 52.2767 53.3953 52.4903 53.3333V53.3648ZM50.9622 27.8837V27.1985L51.0646 27.0724C51.1591 26.9464 51.1591 26.7889 51.0646 26.8046C51.3189 26.629 51.5818 26.466 51.8523 26.3163C51.956 26.2824 52.0663 26.2738 52.174 26.2911C52.2817 26.3085 52.3837 26.3513 52.4715 26.416C52.5593 26.4807 52.6304 26.5655 52.6789 26.6632C52.7274 26.7609 52.7518 26.8688 52.7502 26.9779L53.0338 35.4453C53.0338 36.2881 53.081 38.982 53.0889 41.2032C53.0889 43.5662 53.1677 45.8898 53.1913 46.7169C53.1913 46.9768 53.1913 47.7645 53.1913 48.6151C53.1913 49.4658 53.1362 50.4268 53.144 50.7418C53.144 51.3247 53.0338 52.1911 52.4666 52.3172L52.1516 52.3802C52.1516 51.2696 52.2303 49.5131 52.2146 49.0326C52.1673 47.4021 52.1122 39.5412 52.0571 37.8005L51.8286 29.2937C51.8215 29.0031 51.7376 28.7196 51.5855 28.4719C51.4333 28.2243 51.2182 28.0213 50.9622 27.8837Z" fill="#2B2B2B"/>
<path d="M62.4059 55.7508C63.6276 56.1015 64.9144 56.1608 66.1631 55.9241C66.1198 56.1873 66.0104 56.4353 65.8451 56.6447C65.6798 56.8541 65.464 57.0181 65.2179 57.1213C64.0049 57.6195 62.6667 57.7269 61.3898 57.4285V56.2706C61.3898 56.1131 61.3032 55.2309 61.3032 55.2309C61.1063 44.3217 60.6416 33.255 60.2871 22.3222C60.2871 22.0071 60.358 21.1485 60.8227 21.054L61.2874 20.9595C61.3662 23.7478 61.4922 26.5204 61.571 29.3639C61.7837 34.9248 61.9333 40.5015 62.0909 46.0231L62.2799 52.9703C62.2799 52.9703 62.3508 53.758 62.3587 53.9549L62.4059 55.7508ZM63.3905 53.758C63.3905 53.5926 63.3117 52.7104 63.3117 52.7104C63.1148 41.8012 62.6501 30.7423 62.2957 19.8095C62.2957 19.4944 62.3665 18.628 62.8313 18.5335C65.5093 17.8876 67.9669 16.8006 68.1244 20.6838C68.6915 22.4718 69.2035 24.1181 69.6997 25.8745C70.897 29.6475 72.3384 33.1132 73.6381 36.9019C73.8796 37.4013 74.0519 37.9313 74.1501 38.4772C74.1501 38.6426 74.3233 39.1861 74.3233 39.3437C74.3233 39.5012 74.4966 39.895 74.7566 39.7848C75.0165 39.6745 75.0637 39.7217 75.0559 39.5642C75.0559 38.9892 74.9141 36.2639 74.8983 35.681C74.8826 35.0981 74.599 30.3485 74.5754 29.7735C74.5203 27.7728 74.1107 18.6044 74.0083 16.6116L74.2524 16.2493L78.1908 15.3828C78.6082 15.2962 78.7658 15.5876 78.9312 15.816V17.0763C79.073 20.227 79.0572 23.291 79.1911 26.4417C79.4038 34.0663 79.5377 51.8676 79.5377 51.8676L79.2856 52.1748L73.772 53.4114C73.5983 53.3222 73.4368 53.211 73.2915 53.0806C73.1164 52.8967 73.0035 52.6625 72.9686 52.4111C72.5117 49.2604 68.4473 35.2951 67.7621 34.7988H67.6597L67.51 34.9879C67.5967 40.2022 67.9747 48.1655 68.1717 53.309C68.1365 53.583 68.03 53.8429 67.8627 54.0627C67.6954 54.2826 67.4733 54.4545 67.2186 54.5614C66.0048 55.057 64.6666 55.1616 63.3905 54.8607V53.758ZM69.2271 47.2597C69.1169 45.1173 69.0538 42.8567 68.9908 40.6985C70.2511 44.9361 71.5429 50.5443 71.9682 52.734C72.0357 53.1454 72.2065 53.5329 72.4644 53.8604C72.7983 54.0856 73.1515 54.2807 73.5199 54.4432L77.537 53.6556V54.4432L77.2928 54.7583L71.7792 55.9871C71.608 55.9009 71.4491 55.7923 71.3066 55.6641C71.1318 55.476 71.0167 55.2403 70.9758 54.9867C70.5518 52.3777 69.9678 49.7971 69.2271 47.2597ZM72.2203 18.7777L73.0079 18.6123C73.1576 22.1253 73.4333 28.4108 73.4805 29.9941C73.4805 30.3564 73.5435 32.3571 73.6381 34.0269L72.7953 31.6639L72.4644 30.829L71.9288 19.1479L72.2203 18.7777Z" fill="#2B2B2B"/>
<path d="M82.594 19.0612C82.1559 21.0597 81.9707 23.1052 82.0427 25.1499L82.2553 44.0539C82.3137 45.0773 82.5152 46.0874 82.854 47.0549L82.791 46.8028L82.9091 47.1494C83.9882 50.6309 86.107 52.0487 89.6121 51.3398C90.3192 51.2087 91.0089 50.9972 91.668 50.7097L91.4159 50.9696C90.3239 51.9114 88.9943 52.5353 87.5721 52.7734C84.5868 53.3799 82.7909 52.2141 81.9324 49.3706C81.5225 48.4082 81.3006 47.3761 81.2786 46.3302L81.066 27.4262C80.9872 24.567 81.129 21.5817 82.594 19.0612ZM93.4166 48.4333C92.3304 49.3852 91.0034 50.0201 89.5806 50.2686C86.5875 50.883 84.7916 49.7093 83.9331 46.8737C83.5277 45.9098 83.306 44.8787 83.2793 43.8333L83.0666 24.9293C83.0115 20.8728 83.2557 16.6431 87.1152 13.7917C87.8352 13.2477 88.6802 12.8929 89.5728 12.7599C92.6683 12.1849 95.2125 12.1455 96.2837 15.3119C96.4832 15.8659 96.6386 16.4348 96.7484 17.0133L96.8193 25.2523L93.1567 25.9454L92.8416 25.6934L92.7471 18.6044C92.7471 18.6044 92.3139 18.116 92.1563 17.8797C91.9588 17.706 91.7237 17.5807 91.4694 17.5138C91.2151 17.4468 90.9487 17.4399 90.6913 17.4937C89.6122 17.7143 88.7851 17.9821 88.3283 19.1321C88.281 19.2975 88.1392 19.652 88.1392 19.652L88.4149 44.5029C88.4149 45.2433 89.5334 45.5426 90.1005 45.4323C90.6833 45.345 91.2175 45.0574 91.6114 44.619C92.0052 44.1806 92.2341 43.6187 92.2587 43.0299V36.5317C92.2198 36.1293 92.102 35.7385 91.9121 35.3817L91.7546 35.2556L90.258 35.5077L89.943 35.3108V32.294C89.9482 32.1642 89.9945 32.0393 90.0752 31.9374C90.1558 31.8355 90.2667 31.7618 90.3919 31.7269C90.9591 31.6087 93.7395 31.0968 94.3303 30.9392C94.6375 30.8762 96.6933 30.3485 96.9532 30.2933H97.1107L97.4258 30.5454C97.4258 30.8605 97.4258 32.6642 97.4258 32.9084C97.4258 33.5543 97.4258 35.1848 97.4258 35.3423C97.4809 37.1776 97.4258 45.8183 97.4258 47.6141C97.4258 47.9292 97.4258 48.5121 97.0399 48.5909L95.1337 48.9296C94.8186 48.9926 94.4799 47.8977 93.9128 48.0159H93.7553L93.4166 48.4333ZM89.2104 20.0773V19.6913C89.2104 19.6913 89.305 19.4078 89.3522 19.2424C89.5491 18.8328 89.9587 18.691 90.6282 18.5571C90.8559 18.5092 91.0928 18.534 91.3056 18.628V18.5807C91.4277 18.7955 91.573 18.9963 91.7389 19.1794L91.8334 26.2684L92.7865 27.056L94.8029 26.7016V27.7492L91.1481 28.4423L90.8252 28.1903L90.7306 21.1013C90.7306 21.1013 90.3053 20.605 90.1399 20.3766C90.0156 20.2608 89.8692 20.1711 89.7095 20.1129C89.5499 20.0547 89.3802 20.0292 89.2104 20.0379V20.0773ZM89.9981 36.6813C90.3562 36.5996 90.7193 36.5417 91.0851 36.508C91.086 36.6176 91.125 36.7234 91.1954 36.8074V43.3056C91.1719 43.5747 91.0604 43.8285 90.8781 44.0278C90.6959 44.2272 90.453 44.3609 90.1871 44.4083V39.0758C90.1559 38.6755 90.0405 38.2863 89.8485 37.9337L89.7933 37.8077L89.3837 37.8865C89.3837 37.4139 89.3837 36.8782 89.3837 36.4056L89.9981 36.6813ZM93.8734 49.3785V49.3234C94.2043 49.8354 94.4721 50.2056 95.1888 50.0638L95.4488 50.0087V50.2213C95.4488 50.5364 95.4488 51.1114 95.0628 51.198L93.1488 51.5289C92.8416 51.5919 92.5029 50.5049 91.9358 50.6152H91.8806C92.5522 50.2417 93.1994 49.826 93.8183 49.3706L93.8734 49.3785Z" fill="#2B2B2B"/>
<path d="M44.22 115.346L45.3543 116.259C45.3543 116.259 47.3156 115.944 48.883 115.708V116.7C48.883 116.905 48.4262 117.126 48.2371 117.165L47.9063 117.228C46.5988 117.48 43.267 118.016 43.267 118.016L42.9361 117.748L42.6841 104.909C42.6132 101.254 42.4635 83.4608 42.3848 79.7982C42.3848 79.0656 42.4399 75.9859 42.432 75.3164V74.19C42.432 73.4575 42.5187 71.7719 42.5187 71.7719L42.7077 71.5986L43.6923 71.4095V72.402C43.6923 72.6698 43.6529 73.8119 43.6923 74.4814C43.645 75.4187 43.6923 76.49 43.6923 76.8444C43.6923 78.7112 43.7632 84.1067 43.8026 89.4471C43.8419 94.7875 43.9522 100.167 43.9837 101.963L44.22 115.346ZM45.2676 101.727C45.1967 98.0642 45.0392 80.2708 44.9683 76.616C44.9683 75.8835 45.0235 72.7958 45.0156 72.1342V70.9999C45.0156 70.2674 45.0943 68.5818 45.0943 68.5818L45.2913 68.4085L50.8049 67.3373C50.9388 67.3373 51.1436 67.7469 51.1436 67.7469C51.1436 68.2746 51.3957 70.4328 51.4036 70.8975V71.2284C51.4823 75.3557 51.4036 79.2468 51.4036 83.3033L51.4744 86.966C51.4744 87.1629 51.8131 87.5646 52.0101 87.5252L55.7909 86.7848C55.9154 86.7541 56.0266 86.6837 56.1076 86.5842C56.1886 86.4847 56.235 86.3616 56.2398 86.2334C56.2398 84.1697 56.2398 74.5523 56.1689 72.4965C56.1689 71.7088 56.2162 68.0777 56.1689 67.2821C56.3501 66.7071 56.87 66.4945 57.1929 66.077C57.6576 66.4551 62.3521 65.0688 62.171 65.9116L62.4466 78.7663C62.5333 83.1536 62.6042 103.633 62.4939 108.068C62.5801 108.843 62.4115 109.626 62.0134 110.297C62.0134 110.297 61.3675 110.958 61.3754 111.155V111.817L61.2415 111.974L57.3032 112.762L56.9724 112.494L56.8227 105.114C56.8227 103.184 56.4289 94.9765 56.3895 93.1807L56.0587 92.9128C55.2231 92.9058 54.3899 93.001 53.5775 93.1964L52.27 93.4485C52.1454 93.5013 52.0378 93.5872 51.9586 93.6969C51.8795 93.8066 51.8319 93.9359 51.821 94.0707L51.6714 96.2368L51.4823 113.565C51.4823 113.762 51.0334 113.983 50.8364 114.022L50.5135 114.085C49.206 114.345 45.8741 114.873 45.8741 114.873L45.5433 114.605L45.2676 101.727ZM52.9553 96.0163L53.0577 94.5984L53.5618 94.5197C54.1238 94.4009 54.6917 94.3115 55.2631 94.2519C55.2159 95.2601 55.2001 97.7334 55.2631 99.2614C55.3734 101.845 55.4915 104.358 55.5073 105.358L55.6648 113.274L56.7991 114.188L59.2093 113.715C59.0256 113.875 58.894 114.086 58.8313 114.322V114.991L58.6974 115.149L54.759 115.936L54.4282 115.669L54.2785 108.288C54.2785 106.358 53.8847 98.1508 53.8532 96.3549L53.5145 96.0871C53.3251 96.105 53.1342 96.0808 52.9553 96.0163ZM54.8535 69.3143V70.0469C54.8063 71.189 54.8535 72.3153 54.8535 72.7171C54.8535 73.7174 54.8535 76.9232 54.8535 79.5934C54.8535 82.1297 54.8535 84.3194 54.9008 85.5875L53.6011 85.8475C53.6011 82.1769 53.6011 77.0965 53.6011 75.6078C53.6011 74.8201 53.6484 71.1969 53.6011 70.3934C53.7823 69.8263 54.3022 69.6058 54.6251 69.1962C54.6566 69.3143 54.7196 69.3143 54.8535 69.3143Z" fill="#2B2B2B"/>
<path d="M67.2508 103.477C66.8412 103.555 64.4625 103.863 64.0529 103.941C63.793 103.996 63.8875 103.445 63.8796 103.288C63.8717 103.13 64.1632 101.807 64.1553 101.649C64.7697 95.9307 65.1241 90.1571 65.896 84.415C66.1008 81.6818 66.6207 78.988 66.8255 76.2075C66.9042 75.0812 67.3453 73.8445 67.4792 72.7024C67.6187 70.5212 67.9402 68.3555 68.4402 66.2278L69.0625 66.1018C68.7789 67.748 68.5111 69.5911 68.4717 70.3945L68.1882 71.7178C68.0189 72.4024 67.8926 73.0969 67.8101 73.7973C67.684 75.1914 67.5029 76.5462 67.3217 77.901C67.1406 79.2558 66.9594 80.6657 66.8806 81.9496C66.4317 85.3681 66.093 89.1804 65.7936 92.5674L65.1478 99.2468C65.0677 99.5024 65.0201 99.767 65.006 100.034L65.0611 99.9242C64.9638 100.28 64.9005 100.644 64.8721 101.011C64.8721 101.799 64.494 102.831 66.093 102.523C66.2978 102.476 66.8806 102.413 67.5974 102.334C67.8022 102.334 68.1094 102.287 68.3851 102.232C68.2433 102.894 68.0464 103.351 67.684 103.429L67.2508 103.477ZM69.3145 100.964C68.9049 101.051 66.5262 101.358 66.1166 101.437C65.8567 101.484 65.9512 100.94 65.9433 100.783C65.9354 100.625 66.1717 99.3098 66.2269 99.1444L67.9203 81.9181C68.1251 79.177 68.645 76.4911 68.8498 73.7027C68.9286 72.5843 69.3697 71.3397 69.5036 70.1976C69.6443 68.0166 69.9657 65.8509 70.4645 63.723C72.1659 63.3922 74.0248 62.9353 75.8915 62.7227C76.6792 65.1487 76.8682 67.811 77.333 70.363C77.4669 71.7572 77.8607 73.2695 78.1206 74.6479L79.0895 81.4298C79.0895 81.5873 79.2549 82.1387 79.2549 82.2174C79.7669 86.8725 81.098 94.2136 81.2162 94.9304C81.3422 96.1749 81.6809 97.2934 81.7045 98.53L81.5549 98.7191L77.0573 99.5934C76.5453 99.6958 76.5217 98.7506 76.5138 98.278C76.5138 97.1752 75.9546 93.6307 75.7261 93.4732L71.2837 94.3396C70.2518 94.5444 71.1498 100.602 69.7556 100.869L69.3145 100.964ZM74.9463 89.204L75.0409 89.0229C75.2929 88.2903 74.6234 88.7866 74.5367 84.2102C74.4816 84.2732 73.5915 75.6325 73.1268 75.7192C73.0197 75.7588 72.9251 75.8265 72.8531 75.9152C72.781 76.0039 72.7341 76.1103 72.7172 76.2233C72.7172 79.8072 72.0241 82.9578 71.6775 86.3054C71.4839 87.3036 71.3628 88.3144 71.3152 89.3301C71.2915 89.3823 71.2801 89.4393 71.2817 89.4966C71.2833 89.554 71.2979 89.6102 71.3245 89.6611C71.3511 89.7119 71.3888 89.7561 71.435 89.7902C71.4812 89.8242 71.5345 89.8474 71.5909 89.8578L74.9463 89.204ZM71.2994 96.4585L71.3861 95.3872L75.159 94.6547C75.2693 95.3163 75.4741 97.6557 75.4898 98.4985C75.5056 99.3413 75.5371 100.964 77.0652 100.665L79.5936 100.168C79.5936 100.436 79.6566 100.743 79.6645 101.051L79.5148 101.24L75.0172 102.122C74.5052 102.224 74.4816 101.271 74.4737 100.799C74.4737 99.6958 73.9145 96.1591 73.6861 95.9937L71.2994 96.4585ZM72.7094 86.3133L73.1111 83.013L73.2056 82.3041C73.2134 82.5833 73.253 82.8608 73.3237 83.1311C73.3487 83.5633 73.4093 83.9928 73.5049 84.415C73.4697 85.7363 73.5833 87.0574 73.8436 88.3534L72.5991 88.5975C72.5443 88.1454 72.518 87.6903 72.5203 87.2349L72.7094 86.3133Z" fill="#2B2B2B"/>
<path d="M83.7132 97.0407C83.7132 97.6708 83.7132 98.8838 85.1941 98.616C85.6115 98.5372 86.7694 98.3639 87.88 98.1434L90.6211 97.6078L92.9841 97.2455C93.4961 97.1509 94.0159 97.0958 94.4334 97.017L94.4964 97.8047C94.4964 97.8047 94.3467 98.0961 94.2443 98.1198C94.1523 98.1381 94.0643 98.1728 93.9844 98.2222L93.5748 98.3009C93.0077 98.4112 89.0772 98.9704 88.5574 99.0886C87.7697 99.2461 83.9653 99.9314 83.1382 100.097C82.7208 100.176 82.7129 99.6478 82.705 99.3879V99.1201C82.705 92.102 82.579 85.0996 82.4451 78.1524C82.4451 76.837 82.3112 65.8727 82.2324 64.573V63.6278L82.4845 63.3127L83.2721 63.1631V64.2107C83.2721 66.4713 83.3903 70.2127 83.3903 72.875L83.4454 75.8682C83.5793 82.8154 83.666 89.8256 83.7054 96.8359L83.7132 97.0407ZM84.7451 96.5759C84.7451 89.5578 84.6191 82.5476 84.4852 75.6082C84.4852 74.2928 84.3512 63.3285 84.2725 62.0288V61.0758L84.5245 60.7607L86.281 60.422C88.9118 59.7997 95.2132 58.7285 95.2132 58.7285L95.4731 58.7837C95.5568 59.136 95.6147 59.4941 95.6464 59.8549V60.1227C95.6464 60.9104 95.6464 62.7141 95.6464 62.7141L95.3943 63.0213L94.8745 63.1237C93.2991 63.4388 91.7789 63.6278 90.2272 63.9823C90.0446 64.0103 89.8736 64.0895 89.7342 64.2108C89.5947 64.3321 89.4926 64.4905 89.4396 64.6675C89.4396 67.6213 89.3057 71.1894 89.4396 74.0171V75.175C89.7625 75.5373 90.1248 75.4664 90.5344 75.3877C91.6214 75.175 92.7557 74.7891 93.8348 74.5291C94.0947 74.4819 94.2522 74.4504 94.3625 74.8521V75.7421C94.3625 76.0572 94.4334 76.837 94.4334 76.837L94.3152 78.7589C94.4098 78.3729 93.7087 79.2473 93.4488 79.3575C92.5194 79.5387 91.5899 79.6096 90.7077 79.7829C90.1406 79.8931 89.9201 79.9404 89.6365 80.413C89.584 80.9365 89.5577 81.4622 89.5577 81.9883C89.5577 82.9414 89.5577 88.652 89.5577 90.1249C89.5577 90.1249 89.6207 90.7945 89.6207 90.9126V91.8657C89.6556 91.9481 89.7136 92.0188 89.7876 92.0691C89.8617 92.1194 89.9487 92.1472 90.0382 92.1492L96.3395 90.8181L96.5286 95.2684C96.5286 95.2684 96.3789 95.5598 96.2765 95.5835C96.1835 95.5985 96.0949 95.6334 96.0166 95.6859L95.607 95.7646C95.0399 95.8749 91.1094 96.4342 90.5896 96.5523C89.8019 96.7177 85.9975 97.403 85.1704 97.5605C84.753 97.6393 84.7451 97.1194 84.7372 96.8516L84.7451 96.5759ZM90.4714 66.0459V64.9905C91.2591 64.7778 92.1255 64.6675 92.9998 64.4942L93.6221 64.3761V65.2189L93.37 65.534L92.8502 65.6285C92.0152 65.7939 91.2433 65.9435 90.4714 66.0459ZM90.5738 82.0198V81.6575C90.528 81.397 90.528 81.1304 90.5738 80.8698H90.6762C91.0858 80.7832 91.4639 80.7596 91.9129 80.6729C92.0312 80.7075 92.1569 80.7075 92.2752 80.6729C92.2614 80.888 92.2614 81.1037 92.2752 81.3188C92.3382 81.6733 91.6687 81.8072 91.4087 81.9096L90.5738 82.0198Z" fill="#2B2B2B"/>
<path d="M98.9702 95.2201C100.2 95.584 101.497 95.6568 102.759 95.4328C102.709 95.6948 102.595 95.9403 102.427 96.1478C102.26 96.3552 102.044 96.5182 101.798 96.6222C100.582 97.1099 99.2435 97.2062 97.9699 96.8979V95.74C97.9699 95.5825 97.899 94.6924 97.899 94.6924C97.7887 83.7832 97.4106 72.7165 97.1113 61.7837C97.1113 61.4686 97.198 60.61 97.6627 60.5155L98.1274 60.4289C98.1826 63.2172 98.285 65.9898 98.3401 68.8333C98.5055 74.4021 98.6158 79.9788 98.7182 85.5003L98.86 92.4397C98.86 92.4397 98.923 93.2746 98.9308 93.4321L98.9702 95.2201ZM99.9706 93.2273C99.9706 93.0698 99.8997 92.1876 99.8997 92.1876C99.7894 81.2784 99.4113 70.2117 99.112 59.2789C99.112 58.9638 99.1986 58.0974 99.6634 58.0107C102.341 57.3806 104.815 56.3172 104.941 60.2004C105.492 61.9963 105.996 63.6347 106.437 65.399C107.603 69.1877 109.021 72.6535 110.289 76.4736C110.524 76.9743 110.691 77.5041 110.785 78.049C110.785 78.2065 110.951 78.7579 110.959 78.9154C110.966 79.073 111.124 79.4668 111.384 79.3644C111.644 79.262 111.691 79.3014 111.691 79.1438C111.691 78.5688 111.573 75.8356 111.557 75.2606C111.541 74.6856 111.297 69.9281 111.289 69.3453C111.25 67.3446 110.911 58.1761 110.825 56.1833L111.077 55.821L115.015 54.9861C115.432 54.9073 115.59 55.1909 115.755 55.4272V56.6874C115.866 59.8381 115.826 62.91 115.937 66.0528C116.086 73.6774 116.07 91.4787 116.07 91.4787L115.818 91.7938L110.305 92.9753C110.132 92.8884 109.973 92.777 109.832 92.6445C109.657 92.4579 109.544 92.221 109.509 91.9671C109.084 88.8164 105.13 74.8195 104.445 74.3154H104.342L104.192 74.5045C104.24 79.7188 104.555 87.69 104.704 92.8335C104.667 93.1069 104.559 93.3658 104.39 93.5842C104.222 93.8026 103.999 93.9729 103.743 94.078C102.527 94.5662 101.188 94.6599 99.9154 94.3458L99.9706 93.2273ZM105.854 86.8C105.76 84.6496 105.721 82.389 105.673 80.2387C106.902 84.4842 108.147 90.1003 108.556 92.29C108.618 92.6992 108.787 93.0849 109.044 93.4085C109.375 93.6372 109.725 93.8349 110.092 93.9992L114.117 93.2116V93.9992L113.865 94.3143L108.351 95.4958C108.18 95.4096 108.021 95.301 107.879 95.1729C107.705 94.9851 107.592 94.7488 107.556 94.4955C107.145 91.8982 106.577 89.3282 105.854 86.8ZM109.084 58.3415L109.872 58.184C109.99 61.697 110.218 67.9826 110.25 69.5658C110.25 69.936 110.297 71.9288 110.376 73.6065L109.588 71.2435L109.257 70.4086L108.824 58.7117L109.084 58.3415Z" fill="#2B2B2B"/>
<path d="M119.726 58.2874C119.26 60.3383 119.051 62.439 119.103 64.5414L119.166 83.9653C119.222 85.0167 119.42 86.0555 119.757 87.053L119.702 86.793L119.812 87.1554C120.899 90.7393 123.057 92.2201 126.673 91.5112C127.402 91.388 128.114 91.1764 128.792 90.881L128.524 91.1488C127.409 92.1213 126.045 92.7649 124.586 93.0077C121.506 93.6142 119.671 92.3934 118.812 89.4711C118.396 88.4721 118.177 87.4024 118.166 86.3204L118.103 66.9517C118.04 63.9428 118.198 60.8709 119.726 58.2874ZM130.611 88.5732C129.495 89.5446 128.132 90.188 126.673 90.4321C123.593 91.0307 121.758 89.8177 120.899 86.8876C120.482 85.8891 120.262 84.819 120.253 83.7369L120.19 64.313C120.19 60.1384 120.45 55.7905 124.444 52.8918C125.187 52.3374 126.061 51.9822 126.98 51.86C130.17 51.2929 132.777 51.2692 133.856 54.5302C134.057 55.1021 134.209 55.6896 134.313 56.2867V64.7777L130.548 65.463L130.217 65.2031V57.9329C130.217 57.9329 129.776 57.4209 129.611 57.1452C129.409 56.9669 129.17 56.8373 128.91 56.7662C128.651 56.6952 128.378 56.6848 128.114 56.7357C126.996 56.9562 126.153 57.2319 125.696 58.4055C125.637 58.5849 125.569 58.761 125.491 58.9332L125.57 84.4852C125.57 85.2728 126.704 85.5643 127.295 85.454C127.896 85.3732 128.45 85.0835 128.859 84.6356C129.268 84.1878 129.506 83.6103 129.532 83.0044V76.3249C129.493 75.9135 129.379 75.5129 129.193 75.1434L129.028 75.0095L127.453 75.2537L127.13 75.0489L127.177 71.9455C127.185 71.8122 127.234 71.6846 127.317 71.5803C127.4 71.4759 127.514 71.3999 127.642 71.3626C128.225 71.2524 131.1 70.7483 131.738 70.6222C132.053 70.5592 134.171 70.0394 134.439 69.9842H134.597L134.92 70.2442C134.92 70.575 134.92 72.4181 134.92 72.6938C134.88 73.3476 134.92 75.0568 134.92 75.1907C134.959 77.0811 134.817 85.9581 134.794 87.7934C134.794 88.1163 134.794 88.715 134.392 88.7937L132.423 89.1245C132.108 89.1876 131.761 88.0612 131.178 88.1715H131.021L130.611 88.5732ZM127.24 76.4037C127.609 76.3286 127.983 76.2759 128.358 76.2462C128.361 76.3555 128.4 76.4609 128.469 76.5455V83.2328C128.439 83.5085 128.321 83.7672 128.132 83.9702C127.943 84.1733 127.694 84.3097 127.421 84.3591L127.476 78.9164C127.44 78.5036 127.322 78.1021 127.13 77.7349L126.972 77.601L126.547 77.6876C126.547 77.1992 126.547 76.6479 126.547 76.1595L127.24 76.4037ZM126.531 59.335V59.012L126.681 58.5473C126.886 58.1298 127.311 57.988 127.996 57.8541C128.229 57.7985 128.475 57.8263 128.689 57.9329V57.8935C128.81 58.1187 128.958 58.3278 129.13 58.5158L129.17 65.8411L130.139 66.6288L132.21 66.2743V67.3613L128.437 68.0387L128.114 67.7788L128.075 60.5086C128.075 60.5086 127.642 59.9966 127.476 59.7603C127.355 59.6316 127.208 59.5289 127.046 59.4585C126.883 59.3881 126.708 59.3514 126.531 59.3507V59.335ZM131.123 89.4947V89.4396C131.454 89.9673 131.73 90.3533 132.47 90.2273L132.738 90.18V90.3927C132.738 90.7156 132.738 91.3143 132.336 91.4009L130.367 91.7238C130.052 91.7868 129.705 90.6605 129.123 90.7786L129.067 90.7314C129.762 90.3565 130.43 89.9355 131.068 89.4711L131.123 89.4947Z" fill="#2B2B2B"/>
</g>
<defs>
<clipPath id="clip0_128_5824">
<rect width="142.694" height="140" fill="white"/>
</clipPath>
</defs>
</svg>
